<?xml version="1.0" standalone="no"?>
<!DOCTYPE svg PUBLIC "-//W3C//DTD SVG 20010904//EN" "http://www.w3.org/TR/2001/REC-SVG-20010904/DTD/svg10.dtd">
<!-- Created using Krita: https://krita.org -->
<svg xmlns="http://www.w3.org/2000/svg" 
    xmlns:xlink="http://www.w3.org/1999/xlink"
    xmlns:krita="http://krita.org/namespaces/svg/krita"
    xmlns:sodipodi="http://sodipodi.sourceforge.net/DTD/sodipodi-0.dtd"
    width="122.88pt"
    height="122.88pt"
    viewBox="0 0 122.88 122.88">
<defs/>
<rect id="shape0" transform="matrix(0.999999969204769 0 0 0.999999969204769 0 0)" fill="#358757" fill-rule="evenodd" stroke="#358757" stroke-width="0.0024" stroke-linecap="square" stroke-linejoin="bevel" width="122.88" height="122.88" rx="12" ry="12"/><path id="shape01" transform="matrix(1.2528783208755 0 0 1.2528783208755 10.3764641518717 30.4750391852455)" fill="none" stroke="#ffffff" stroke-width="2.4" stroke-linecap="square" stroke-linejoin="miter" stroke-miterlimit="2" d="M14.425 0C3.35119 17.3706 1.73998 23.0193 0 43.9538" sodipodi:nodetypes="cc"/><path id="shape1" transform="matrix(1.2528783208755 0 0 1.2528783208755 29.8403147419952 26.635039151751)" fill="none" stroke="#ffffff" stroke-width="2.4" stroke-linecap="square" stroke-linejoin="miter" stroke-miterlimit="2" d="M0 2.22C4.98357 0.564319 10.4379 0.282159 15.84 0" sodipodi:nodetypes="cc"/><path id="shape2" transform="matrix(1.2528783208755 0 0 1.2528783208755 50.0804816151711 27.0366306214716)" fill="none" stroke="#ffffff" stroke-width="2.4" stroke-linecap="square" stroke-linejoin="miter" stroke-miterlimit="2" d="M1.4425 3.77595L0 0" sodipodi:nodetypes="cc"/><path id="shape3" transform="matrix(1.2528783208755 0 0 1.2528783208755 52.4724626612971 31.1827309474118)" fill="none" stroke="#ffffff" stroke-width="2.4" stroke-linecap="square" stroke-linejoin="miter" stroke-miterlimit="2" d="M0 0.740535C6.17187 -0.0846415 3.24862 0.0447231 6.02683 0" sodipodi:nodetypes="cc"/><path id="shape4" transform="matrix(1.2528783208755 0 0 1.2528783208755 11.0143252380088 86.1816097823536)" fill="none" stroke="#ffffff" stroke-width="2.4" stroke-linecap="square" stroke-linejoin="miter" stroke-miterlimit="2" d="M0 0C7.8 3.8 16.1062 6.15218 24.9862 8.03218" sodipodi:nodetypes="cc"/><path id="shape5" transform="matrix(1.2528783208755 0 0 1.2528783208755 42.5884701082441 88.5204395797431)" fill="none" stroke="#ffffff" stroke-width="2.4" stroke-linecap="square" stroke-linejoin="miter" stroke-miterlimit="2" d="M2.54559 0L0 5.98212" sodipodi:nodetypes="cc"/><path id="shape6" transform="matrix(1.2528783208755 0 0 1.2528783208755 35.1999088430205 83.4707025707702)" fill="none" stroke="#ffffff" stroke-width="2.4" stroke-linecap="square" stroke-linejoin="miter" stroke-miterlimit="2" d="M8.61256 3.52139L0 0" sodipodi:nodetypes="cc"/><path id="shape7" transform="matrix(1.2528783208755 0 0 1.2528783208755 35.0184258848561 78.8424824958791)" fill="none" stroke="#ffffff" stroke-width="2.4" stroke-linecap="square" stroke-linejoin="miter" stroke-miterlimit="2" d="M1.79203 0L0 3.48878" sodipodi:nodetypes="cc"/><path id="shape8" transform="matrix(1.2528783208755 0 0 1.2528783208755 37.4608905710123 78.9670739568534)" fill="none" stroke="#ffffff" stroke-width="2.4" stroke-linecap="square" stroke-linejoin="miter" stroke-miterlimit="2" d="M0 0C5.0879 3.48685 11.5918 5.22182 18.1575 5.24926" sodipodi:nodetypes="cc"/><ellipse id="shape02" transform="matrix(1.25287835426917 0 0 1.25287835426917 38.8258548842919 51.4420272040465)" rx="6.12" ry="7.2" cx="6.12" cy="7.2" fill="none" stroke="#ffffff" stroke-width="2.4" stroke-linecap="square" stroke-linejoin="bevel"/><path id="shape01" transform="matrix(-1.25491747203209 0 0 1.25017240433923 112.503538572459 30.5086940087509)" fill="none" stroke="#ffffff" stroke-width="2.4" stroke-linecap="square" stroke-linejoin="miter" stroke-miterlimit="2" d="M14.425 0C3.35119 17.3706 1.73998 23.0193 0 43.9538" sodipodi:nodetypes="cc"/><path id="shape11" transform="matrix(-1.25491747203209 0 0 1.25017240433923 93.0080091410768 26.6769874538943)" fill="none" stroke="#ffffff" stroke-width="2.4" stroke-linecap="square" stroke-linejoin="miter" stroke-miterlimit="2" d="M0 2.22C4.98357 0.564319 10.4379 0.282159 15.84 0" sodipodi:nodetypes="cc"/><path id="shape21" transform="matrix(-1.25491747203209 0 0 1.25017240433923 72.7348999150791 27.0777115824048)" fill="none" stroke="#ffffff" stroke-width="2.4" stroke-linecap="square" stroke-linejoin="miter" stroke-miterlimit="2" d="M1.4425 3.77595L0 0" sodipodi:nodetypes="cc"/><path id="shape31" transform="matrix(-1.25491747203209 0 0 1.25017240433923 70.3390257447483 31.1834098692293)" fill="none" stroke="#ffffff" stroke-width="2.4" stroke-linecap="square" stroke-linejoin="miter" stroke-miterlimit="2" d="M0 0.765689C6.17187 -0.059487 3.3041 0.0447231 6.08231 0" sodipodi:nodetypes="cc"/><path id="shape41" transform="matrix(-1.25491747203209 0 0 1.25017240433923 111.864639320723 86.0949517805462)" fill="none" stroke="#ffffff" stroke-width="2.4" stroke-linecap="square" stroke-linejoin="miter" stroke-miterlimit="2" d="M0 0C7.8 3.8 16.1062 6.15218 24.9862 8.03218" sodipodi:nodetypes="cc"/><path id="shape51" transform="matrix(-1.25491747203209 0 0 1.25017240433923 80.2391052190214 88.4287302667917)" fill="none" stroke="#ffffff" stroke-width="2.4" stroke-linecap="square" stroke-linejoin="miter" stroke-miterlimit="2" d="M2.54559 0L0 5.98212" sodipodi:nodetypes="cc"/><path id="shape61" transform="matrix(-1.25491747203209 0 0 1.25017240433923 87.639691908421 83.389899478039)" fill="none" stroke="#ffffff" stroke-width="2.4" stroke-linecap="square" stroke-linejoin="miter" stroke-miterlimit="2" d="M8.61256 3.52139L0 0" sodipodi:nodetypes="cc"/><path id="shape71" transform="matrix(-1.25491747203209 0 0 1.25017240433923 87.8214702433813 78.771675247936)" fill="none" stroke="#ffffff" stroke-width="2.4" stroke-linecap="square" stroke-linejoin="miter" stroke-miterlimit="2" d="M1.79203 0L0 3.48878" sodipodi:nodetypes="cc"/><path id="shape81" transform="matrix(-1.25491747203209 0 0 1.25017240433923 85.3750302672016 78.8959976212512)" fill="none" stroke="#ffffff" stroke-width="2.4" stroke-linecap="square" stroke-linejoin="miter" stroke-miterlimit="2" d="M0 0C5.0879 3.48685 11.6467 5.27903 18.2124 5.30647" sodipodi:nodetypes="cc"/><ellipse id="shape02" transform="matrix(-1.25491750548013 0 0 1.25017243766078 84.0078443746099 51.4303983646051)" rx="6.12" ry="7.2" cx="6.12" cy="7.2" fill="none" stroke="#ffffff" stroke-width="2.4" stroke-linecap="square" stroke-linejoin="bevel"/>
</svg>
